<?xml version="1.0" standalone="no"?>
<!DOCTYPE svg PUBLIC "-//W3C//DTD SVG 20010904//EN"
 "http://www.w3.org/TR/2001/REC-SVG-20010904/DTD/svg10.dtd">
<svg version="1.0" xmlns="http://www.w3.org/2000/svg"
 width="138.000000pt" height="132.000000pt" viewBox="0 0 138.000000 132.000000"
 preserveAspectRatio="xMidYMid meet">

<g transform="translate(0.000000,132.000000) scale(0.100000,-0.100000)"
fill="#000000" stroke="none">
<path d="M550 1254 c-266 -57 -470 -311 -470 -584 0 -324 276 -600 600 -600
276 0 528 205 585 475 43 204 -16 397 -164 546 -149 149 -347 207 -551 163z
m340 -394 l0 -70 -40 0 c-39 0 -40 1 -40 35 l0 35 -105 0 -105 0 0 -60 0 -60
80 0 80 0 0 -30 0 -30 -80 0 -80 0 0 -65 0 -65 105 0 105 0 0 40 0 40 40 0 40
0 0 -75 0 -75 -221 0 -220 0 3 33 c2 27 8 33 31 35 l27 3 0 154 0 154 -27 3
c-23 2 -29 8 -31 36 l-3 32 220 0 221 0 0 -70z"/>
</g>
</svg>
