<?xml version="1.0" standalone="no"?>
<!DOCTYPE svg PUBLIC "-//W3C//DTD SVG 20010904//EN"
 "http://www.w3.org/TR/2001/REC-SVG-20010904/DTD/svg10.dtd">
<svg version="1.0" xmlns="http://www.w3.org/2000/svg"
 width="136.000000pt" height="141.000000pt" viewBox="0 0 136.000000 141.000000"
 preserveAspectRatio="xMidYMid meet">

<g transform="translate(0.000000,141.000000) scale(0.100000,-0.100000)"
fill="#000000" stroke="none">
<path d="M550 1294 c-266 -57 -470 -311 -470 -584 0 -324 276 -600 600 -600
276 0 528 205 585 475 43 204 -16 397 -164 546 -149 149 -347 207 -551 163z
m144 -481 c53 -87 100 -165 106 -173 7 -10 10 26 10 122 l0 137 -27 3 c-23 2
-29 8 -31 36 l-3 32 96 0 96 0 -3 -32 c-2 -28 -8 -34 -30 -36 l-28 -3 0 -190
0 -189 -49 0 -50 0 -97 163 c-54 89 -103 171 -111 182 -11 17 -13 -2 -13 -128
l0 -147 30 0 c28 0 30 -3 30 -35 l0 -35 -95 0 -95 0 0 35 c0 32 2 35 30 35
l30 0 0 154 0 155 -27 3 c-23 2 -29 8 -31 36 l-3 32 85 0 85 0 95 -157z"/>
</g>
</svg>
