<?xml version="1.0" standalone="no"?>
<!DOCTYPE svg PUBLIC "-//W3C//DTD SVG 20010904//EN"
 "http://www.w3.org/TR/2001/REC-SVG-20010904/DTD/svg10.dtd">
<svg version="1.0" xmlns="http://www.w3.org/2000/svg"
 width="139.000000pt" height="135.000000pt" viewBox="0 0 139.000000 135.000000"
 preserveAspectRatio="xMidYMid meet">

<g transform="translate(0.000000,135.000000) scale(0.100000,-0.100000)"
fill="#000000" stroke="none">
<path d="M550 1254 c-266 -57 -470 -311 -470 -584 0 -324 276 -600 600 -600
276 0 528 205 585 475 43 204 -16 397 -164 546 -149 149 -347 207 -551 163z
m-112 -461 c45 -76 93 -156 107 -178 l24 -40 1 148 0 147 -30 0 c-27 0 -30 3
-30 30 l0 30 95 0 95 0 0 -30 c0 -27 -3 -30 -30 -30 l-30 0 0 -195 0 -195 -47
0 c-46 0 -49 2 -72 43 -13 23 -64 107 -113 187 l-88 145 0 -158 0 -157 30 0
c27 0 30 -3 30 -30 l0 -30 -95 0 -95 0 0 30 c0 27 3 30 30 30 l30 0 0 165 0
165 -30 0 c-27 0 -30 3 -30 30 l0 30 83 0 82 0 83 -137z m712 67 l0 -70 -35 0
c-34 0 -35 1 -35 40 l0 40 -110 0 -110 0 0 -65 0 -65 80 0 80 0 0 -30 0 -30
-80 0 -80 0 0 -70 0 -70 110 0 110 0 0 40 0 40 40 0 40 0 0 -70 0 -70 -215 0
-215 0 0 29 c0 25 4 30 28 33 l27 3 3 163 2 162 -30 0 c-27 0 -30 3 -30 30 l0
30 210 0 210 0 0 -70z"/>
</g>
</svg>
