<?xml version="1.0" standalone="no"?>
<!DOCTYPE svg PUBLIC "-//W3C//DTD SVG 20010904//EN"
 "http://www.w3.org/TR/2001/REC-SVG-20010904/DTD/svg10.dtd">
<svg version="1.0" xmlns="http://www.w3.org/2000/svg"
 width="133.000000pt" height="126.000000pt" viewBox="0 0 133.000000 126.000000"
 preserveAspectRatio="xMidYMid meet">

<g transform="translate(0.000000,126.000000) scale(0.100000,-0.100000)"
fill="#000000" stroke="none">
<path d="M554 882 c-49 -23 -69 -64 -61 -123 9 -69 50 -100 157 -119 95 -17
120 -33 120 -75 0 -44 -29 -65 -90 -65 -51 0 -105 28 -115 59 -5 16 -15 21
-41 21 l-34 0 0 -70 0 -70 35 0 35 0 0 48 1 47 14 -32 c20 -47 65 -66 143 -61
58 4 68 8 93 36 25 27 29 41 29 88 0 50 -4 60 -33 89 -24 24 -48 36 -92 45
-127 26 -155 42 -155 86 0 19 8 29 36 40 50 21 101 9 141 -32 22 -24 41 -34
62 -34 l31 0 0 65 0 65 -35 0 -35 0 0 -47 -1 -48 -13 30 c-20 46 -48 65 -102
71 -36 3 -60 0 -90 -14z"/>
</g>
</svg>
