<?xml version="1.0" standalone="no"?>
<!DOCTYPE svg PUBLIC "-//W3C//DTD SVG 20010904//EN"
 "http://www.w3.org/TR/2001/REC-SVG-20010904/DTD/svg10.dtd">
<svg version="1.0" xmlns="http://www.w3.org/2000/svg"
 width="133.000000pt" height="133.000000pt" viewBox="0 0 133.000000 133.000000"
 preserveAspectRatio="xMidYMid meet">

<g transform="translate(0.000000,133.000000) scale(0.100000,-0.100000)"
fill="#000000" stroke="none">
<path d="M530 1244 c-266 -57 -470 -311 -470 -584 0 -324 276 -600 600 -600
276 0 528 205 585 475 43 204 -16 397 -164 546 -149 149 -347 207 -551 163z
m-62 -336 c8 -7 23 -26 34 -43 l18 -30 0 43 c0 41 0 42 35 42 l35 0 0 -65 0
-65 -31 0 c-21 0 -40 10 -62 34 -40 41 -91 53 -141 32 -28 -11 -36 -21 -36
-40 0 -44 28 -60 155 -86 44 -9 68 -21 92 -45 29 -29 33 -39 33 -89 0 -47 -4
-61 -29 -88 -25 -28 -35 -32 -93 -36 -78 -5 -123 14 -143 61 l-14 32 -1 -47 0
-48 -35 0 -35 0 0 70 0 70 34 0 c26 0 36 -5 41 -21 10 -31 64 -59 115 -59 61
0 90 21 90 65 0 42 -25 58 -120 75 -107 19 -148 50 -157 119 -8 59 12 100 61
123 45 21 126 19 154 -4z m602 -58 l0 -70 -35 0 c-34 0 -35 1 -35 40 l0 41
-112 -3 -113 -3 -3 -62 -3 -63 86 0 85 0 0 -30 0 -29 -82 -3 -83 -3 0 -65 0
-65 113 -3 112 -3 0 41 c0 39 1 40 35 40 l35 0 0 -70 0 -70 -210 0 -210 0 0
29 c0 25 4 30 28 33 l27 3 0 160 0 160 -27 3 c-24 3 -28 8 -28 33 l0 29 210 0
210 0 0 -70z"/>
</g>
</svg>
